<?xml version="1.0" standalone="no"?>
<!DOCTYPE svg PUBLIC "-//W3C//DTD SVG 20010904//EN"
 "http://www.w3.org/TR/2001/REC-SVG-20010904/DTD/svg10.dtd">
<svg version="1.0" xmlns="http://www.w3.org/2000/svg"
 width="512.000000pt" height="512.000000pt" viewBox="0 0 512.000000 512.000000"
 preserveAspectRatio="xMidYMid meet">
<metadata>
Created by potrace 1.14, written by Peter Selinger 2001-2017
</metadata>
<g transform="translate(0.000000,512.000000) scale(0.100000,-0.100000)"
fill="#000000" stroke="none">
<path d="M2315 5109 c-798 -82 -1502 -519 -1927 -1196 -469 -746 -515 -1705
-119 -2493 453 -902 1382 -1454 2381 -1417 831 32 1578 449 2042 1142 209 312
353 697 410 1100 17 118 17 512 0 630 -95 667 -405 1233 -903 1650 -364 304
-791 495 -1279 570 -126 19 -477 28 -605 14z m1873 -1965 c24 -16 29 -53 12
-85 -6 -10 -16 -19 -22 -19 -6 0 -4 8 5 18 43 47 -1 110 -58 84 -30 -14 -34
-56 -8 -84 9 -10 11 -18 5 -18 -15 0 -32 33 -32 64 0 26 32 56 60 56 9 0 26
-7 38 -16z m-24 -23 c3 -5 -2 -8 -11 -7 -27 2 -28 -32 -1 -37 l23 -4 -23 -2
c-27 -1 -39 23 -22 44 14 17 26 19 34 6z m-255 -323 c-148 -236 -159 -257
-159 -308 0 -52 16 -82 161 -313 66 -104 119 -193 119 -198 0 -5 -56 -9 -127
-9 l-128 0 -109 183 c-61 100 -119 197 -130 216 l-19 34 -21 -37 c-12 -21 -57
-97 -100 -169 -43 -73 -93 -156 -110 -184 l-31 -53 -127 0 c-71 0 -128 2 -128
5 0 5 30 53 202 328 l48 77 -425 0 -425 0 0 -105 0 -105 260 0 260 0 0 -101 0
-100 -312 3 c-294 3 -315 4 -348 23 -64 38 -75 71 -78 238 l-4 147 -229 0
-229 0 0 95 0 95 766 0 c725 0 766 1 762 18 -3 9 -58 100 -121 202 l-116 185
116 3 c64 1 122 1 127 -1 6 -3 65 -93 130 -201 66 -108 122 -196 125 -196 3 0
39 55 80 123 41 67 99 161 129 210 l53 87 129 0 129 0 -120 -192z m-999 82 l0
-100 -255 0 -255 0 0 -75 0 -75 -111 0 -111 0 3 119 c4 129 12 150 71 194 42
31 80 35 376 36 l282 1 0 -100z"/>
</g>
</svg>
